{
    "asset" : {
        "generator" : "Khronos glTF Blender I/O v1.4.40",
        "version" : "2.0"
    },
    "scene" : 0,
    "scenes" : [
        {
            "name" : "Scene",
            "nodes" : [
                21,
                22
            ]
        }
    ],
    "nodes" : [
        {
            "name" : "Bone.005",
            "rotation" : [
                0.22721344232559204,
                0.027717897668480873,
                -0.5961240530014038,
                0.7695725560188293
            ],
            "scale" : [
                1,
                1,
                0.9999999403953552
            ],
            "translation" : [
                -2.2506551431433763e-06,
                9.431427955627441,
                1.364331637887517e-06
            ]
        },
        {
            "children" : [
                0
            ],
            "name" : "Bone.004",
            "rotation" : [
                -0.271418958902359,
                -9.958318614167183e-09,
                0.6054449677467346,
                0.7481765747070312
            ],
            "scale" : [
                0.9999999403953552,
                0.9999999403953552,
                0.9999999403953552
            ],
            "translation" : [
                8.244616651609249e-07,
                13.352826118469238,
                -1.4473946521320613e-06
            ]
        },
        {
            "name" : "Bone.007",
            "rotation" : [
                0.5518571734428406,
                0.0134881054982543,
                0.32525500655174255,
                0.7677766680717468
            ],
            "scale" : [
                0.9999999403953552,
                1.0000001192092896,
                1.0000001192092896
            ],
            "translation" : [
                -1.2025138858007267e-06,
                7.435497760772705,
                5.0532516979728825e-06
            ]
        },
        {
            "children" : [
                2
            ],
            "name" : "Bone.006",
            "rotation" : [
                -0.6341961622238159,
                -1.0897635682738382e-08,
                -0.361062616109848,
                0.6836878061294556
            ],
            "scale" : [
                0.9999999403953552,
                0.9999998807907104,
                0.9999998807907104
            ],
            "translation" : [
                -1.155468225988443e-06,
                13.352818489074707,
                -1.3663773188454797e-06
            ]
        },
        {
            "name" : "Bone.009",
            "rotation" : [
                0.013582655228674412,
                -0.08611616492271423,
                0.7091150879859924,
                0.6996822953224182
            ],
            "scale" : [
                1,
                0.9999999403953552,
                1
            ],
            "translation" : [
                6.916752681718208e-07,
                8.075580596923828,
                1.2843283911934122e-06
            ]
        },
        {
            "children" : [
                4
            ],
            "name" : "Bone.008",
            "rotation" : [
                0.1496756374835968,
                3.9497749071415456e-08,
                -0.7360112071037292,
                0.6602156758308411
            ],
            "scale" : [
                1.0000001192092896,
                1.0000001192092896,
                1.0000001192092896
            ],
            "translation" : [
                4.917137630400248e-07,
                13.352822303771973,
                1.0051843446490238e-06
            ]
        },
        {
            "name" : "Bone.011",
            "rotation" : [
                -0.6520568132400513,
                -0.0804411992430687,
                -0.04136590659618378,
                0.7527549266815186
            ],
            "scale" : [
                1,
                0.9999998807907104,
                1.0000001192092896
            ],
            "translation" : [
                2.6616412469593342e-06,
                9.0919189453125,
                3.8883608795003965e-06
            ]
        },
        {
            "children" : [
                6
            ],
            "name" : "Bone.010",
            "rotation" : [
                0.6805307269096375,
                -9.350846852385075e-08,
                0.15046896040439606,
                0.7171032428741455
            ],
            "scale" : [
                1,
                1,
                1.0000001192092896
            ],
            "translation" : [
                -8.527744626007916e-07,
                13.352818489074707,
                1.2343785726898204e-07
            ]
        },
        {
            "children" : [
                1,
                3,
                5,
                7
            ],
            "name" : "Bone.003",
            "rotation" : [
                -1.065575183645251e-08,
                -1.681029004885204e-08,
                0.10851885378360748,
                0.9940944910049438
            ],
            "scale" : [
                0.9999996423721313,
                1,
                1.0000001192092896
            ],
            "translation" : [
                4.971604994352674e-07,
                10.941360473632812,
                -6.705530353201539e-08
            ]
        },
        {
            "children" : [
                8
            ],
            "name" : "Heart2",
            "rotation" : [
                4.951009824338826e-09,
                -1.3440739188297357e-08,
                0.04835852235555649,
                0.9988300800323486
            ],
            "scale" : [
                1.0000001192092896,
                1,
                1
            ],
            "translation" : [
                1.2216548839205643e-07,
                12.502634048461914,
                1.4901434752800924e-08
            ]
        },
        {
            "children" : [
                9
            ],
            "name" : "Heart1",
            "rotation" : [
                5.8330460461775147e-08,
                1.0099149960751674e-07,
                0.0227420125156641,
                0.9997413754463196
            ],
            "scale" : [
                0.9999999403953552,
                1.0000001192092896,
                1.0000001192092896
            ],
            "translation" : [
                -9.13449316186643e-09,
                13.998558044433594,
                1.4901305078751648e-08
            ]
        },
        {
            "children" : [
                10
            ],
            "name" : "Bone",
            "rotation" : [
                0.006577343214303255,
                0.007230390794575214,
                -0.046762969344854355,
                0.9988582134246826
            ],
            "scale" : [
                1.0000001192092896,
                0.9999997615814209,
                0.9999996423721313
            ],
            "translation" : [
                2.742193672133908e-08,
                6.3275346755981445,
                2.2500176635048552e-14
            ]
        },
        {
            "name" : "Bone.013",
            "rotation" : [
                0.03725659102201462,
                0.0006065352936275303,
                -0.006688813213258982,
                0.9992831945419312
            ],
            "scale" : [
                1.0000001192092896,
                0.9999997615814209,
                1
            ],
            "translation" : [
                -6.898842030977903e-08,
                10.242653846740723,
                -5.649353056469408e-07
            ]
        },
        {
            "children" : [
                12
            ],
            "name" : "Bone.012",
            "rotation" : [
                -0.5127841234207153,
                -0.4856691360473633,
                -0.5771849751472473,
                0.409921258687973
            ],
            "scale" : [
                1,
                1,
                0.9999999403953552
            ],
            "translation" : [
                2.3362990475561674e-07,
                6.327534198760986,
                1.868183474584839e-08
            ]
        },
        {
            "name" : "Bone.015",
            "rotation" : [
                0.05269633233547211,
                -0.09655480086803436,
                0.3962841033935547,
                0.9115147590637207
            ],
            "scale" : [
                1,
                0.9999999403953552,
                1
            ],
            "translation" : [
                4.971525413566269e-07,
                10.592459678649902,
                4.5543481519416673e-07
            ]
        },
        {
            "name" : "Bone.016",
            "rotation" : [
                0.06887887418270111,
                0.08425642549991608,
                -0.37931621074676514,
                0.9188449382781982
            ],
            "scale" : [
                0.9999999403953552,
                0.9999999403953552,
                0.9999998807907104
            ],
            "translation" : [
                -7.934947348076093e-07,
                10.592458724975586,
                4.0603796946925286e-07
            ]
        },
        {
            "children" : [
                14,
                15
            ],
            "name" : "Bone.014",
            "rotation" : [
                -0.09363418817520142,
                0.5891059041023254,
                0.7996237277984619,
                0.06920164078474045
            ],
            "scale" : [
                1.0000001192092896,
                1,
                1.0000001192092896
            ],
            "translation" : [
                -1.449715636425708e-08,
                6.327534198760986,
                -3.4463116804772653e-09
            ]
        },
        {
            "name" : "Bone.018",
            "rotation" : [
                0.032197531312704086,
                0.0262322798371315,
                -0.14903222024440765,
                0.9879598021507263
            ],
            "scale" : [
                0.9999998807907104,
                1,
                1.0000001192092896
            ],
            "translation" : [
                4.226116629979515e-07,
                10.909428596496582,
                -1.3385529484821745e-07
            ]
        },
        {
            "children" : [
                17
            ],
            "name" : "Bone.017",
            "rotation" : [
                -0.7438812851905823,
                0.19032223522663116,
                0.23741139471530914,
                0.5950243473052979
            ],
            "translation" : [
                -9.778960929907043e-08,
                6.327534198760986,
                -7.316207017993293e-08
            ]
        },
        {
            "name" : "ControlBone",
            "rotation" : [
                0,
                1.1920928955078125e-07,
                0,
                1
            ],
            "translation" : [
                -2.1306493282318115,
                56.55913543701172,
                0.723615288734436
            ]
        },
        {
            "name" : "PoleTarget",
            "rotation" : [
                3.2203351452153584e-07,
                3.2069169719761703e-07,
                -0.7198967337608337,
                0.6940812468528748
            ],
            "scale" : [
                1,
                1.0000001192092896,
                1
            ],
            "translation" : [
                26.856409072875977,
                33.20909881591797,
                2.4109403966576792e-06
            ]
        },
        {
            "children" : [
                11,
                13,
                16,
                18,
                19,
                20
            ],
            "name" : "Armature"
        },
        {
            "mesh" : 0,
            "name" : "Heartplate2"
        }
    ],
    "materials" : [
        {
            "doubleSided" : true,
            "name" : "2",
            "pbrMetallicRoughness" : {
                "metallicFactor" : 0
            }
        }
    ],
    "meshes" : [
        {
            "name" : "Icosphere.006",
            "primitives" : [
                {
                    "attributes" : {
                        "POSITION" : 0,
                        "NORMAL" : 1,
                        "TEXCOORD_0" : 2
                    },
                    "indices" : 3,
                    "material" : 0
                }
            ]
        }
    ],
    "accessors" : [
        {
            "bufferView" : 0,
            "componentType" : 5126,
            "count" : 954,
            "max" : [
                6.155088424682617,
                10.19088077545166,
                7.6932220458984375
            ],
            "min" : [
                -5.950331211090088,
                -8.360118865966797,
                -10.007542610168457
            ],
            "type" : "VEC3"
        },
        {
            "bufferView" : 1,
            "componentType" : 5126,
            "count" : 954,
            "type" : "VEC3"
        },
        {
            "bufferView" : 2,
            "componentType" : 5126,
            "count" : 954,
            "type" : "VEC2"
        },
        {
            "bufferView" : 3,
            "componentType" : 5123,
            "count" : 5340,
            "type" : "SCALAR"
        }
    ],
    "bufferViews" : [
        {
            "buffer" : 0,
            "byteLength" : 11448,
            "byteOffset" : 0
        },
        {
            "buffer" : 0,
            "byteLength" : 11448,
            "byteOffset" : 11448
        },
        {
            "buffer" : 0,
            "byteLength" : 7632,
            "byteOffset" : 22896
        },
        {
            "buffer" : 0,
            "byteLength" : 10680,
            "byteOffset" : 30528
        }
    ],
    "buffers" : [
        {
            "byteLength" : 41208,
            "uri" : "data:application/octet-stream;base64,"
        }
    ]
}
