{
    "asset" : {
        "generator" : "Khronos glTF Blender I/O v1.4.40",
        "version" : "2.0"
    },
    "scene" : 0,
    "scenes" : [
        {
            "name" : "Scene",
            "nodes" : [
                0,
                9,
                37
            ]
        }
    ],
    "nodes" : [
        {
            "mesh" : 0,
            "name" : "Watcher"
        },
        {
            "name" : "Bone",
            "rotation" : [
                0.16941113770008087,
                -8.006393433705825e-15,
                -8.328453571460276e-16,
                0.9855455756187439
            ],
            "scale" : [
                1,
                0.9999999403953552,
                0.9999999403953552
            ],
            "translation" : [
                -2.3491929396505986e-22,
                0.2768357992172241,
                7.450580596923828e-09
            ]
        },
        {
            "children" : [
                1
            ],
            "name" : "Bone.001",
            "rotation" : [
                0.9559361338615417,
                6.44037928024561e-17,
                1.346756842797022e-16,
                0.293574720621109
            ],
            "scale" : [
                1,
                1.0000264644622803,
                1.0000507831573486
            ],
            "translation" : [
                -3.8621011177043224e-23,
                2.137038634941746e-08,
                9.17679088274781e-09
            ]
        },
        {
            "name" : "Bone.006",
            "rotation" : [
                0.9999907612800598,
                -1.354114118612415e-07,
                3.15166762447916e-05,
                -0.004300644155591726
            ],
            "scale" : [
                0.9999999403953552,
                0.9999999403953552,
                0.9980534315109253
            ],
            "translation" : [
                0.002897342201322317,
                0.5802757143974304,
                0.10399454832077026
            ]
        },
        {
            "name" : "Bone.007",
            "rotation" : [
                0.9999907612800598,
                -1.9170549592217867e-07,
                4.461912249098532e-05,
                -0.004300644155591726
            ],
            "scale" : [
                1,
                0.9999999403953552,
                0.998053789138794
            ],
            "translation" : [
                -0.0023656075354665518,
                0.5782065987586975,
                -0.05711127445101738
            ]
        },
        {
            "children" : [
                3,
                4
            ],
            "name" : "Bone.005",
            "rotation" : [
                -0.6944128274917603,
                1.5180806383844329e-16,
                -1.1203715753475747e-18,
                0.7195768356323242
            ],
            "scale" : [
                1,
                1.0000001192092896,
                1.0000001192092896
            ],
            "translation" : [
                -1.7747335106337295e-24,
                0.2925869822502136,
                6.051827483588568e-09
            ]
        },
        {
            "children" : [
                5
            ],
            "name" : "Bone.004",
            "rotation" : [
                0.29085689783096313,
                -6.779920378086377e-17,
                -9.874148029864404e-19,
                0.9567666053771973
            ],
            "translation" : [
                5.629513368048877e-24,
                0.29663947224617004,
                -1.257285475730896e-08
            ]
        },
        {
            "children" : [
                6
            ],
            "name" : "Bone.003",
            "rotation" : [
                0.38375282287597656,
                -9.292779273736718e-17,
                3.2542210706146402e-19,
                0.9234358668327332
            ],
            "scale" : [
                1,
                0.9999999403953552,
                1
            ],
            "translation" : [
                -1.2019968276161183e-23,
                0.2793092727661133,
                7.450580596923828e-09
            ]
        },
        {
            "children" : [
                2,
                7
            ],
            "name" : "Bone.002",
            "rotation" : [
                -0.47232386469841003,
                -3.5753224307657065e-17,
                4.8007355834703435e-17,
                0.8814252018928528
            ],
            "translation" : [
                1.9094696817178195e-16,
                0.14005126059055328,
                0.4230552315711975
            ]
        },
        {
            "children" : [
                8
            ],
            "name" : "Armature.001"
        },
        {
            "name" : "Head",
            "rotation" : [
                0.1285385638475418,
                3.582431829754918e-15,
                6.12919421882907e-08,
                0.991704523563385
            ],
            "scale" : [
                1,
                0.9999998807907104,
                1
            ],
            "translation" : [
                -1.3962873961432046e-14,
                0.2189387083053589,
                7.35210079483295e-08
            ]
        },
        {
            "children" : [
                10
            ],
            "name" : "Neck",
            "rotation" : [
                -0.47090449929237366,
                -1.6108715042754095e-14,
                -2.245447348059315e-07,
                0.8821842074394226
            ],
            "scale" : [
                1,
                1.0000001192092896,
                1.0000001192092896
            ],
            "translation" : [
                2.4482924063475627e-15,
                0.3586406111717224,
                -1.4901161193847656e-08
            ]
        },
        {
            "children" : [
                11
            ],
            "name" : "Belly",
            "rotation" : [
                0.09796089679002762,
                4.7300962517475564e-14,
                4.67113956403864e-08,
                0.9951902627944946
            ],
            "scale" : [
                1,
                1.0000001192092896,
                1
            ],
            "translation" : [
                -2.9526131973406367e-14,
                0.3498738408088684,
                7.450580596923828e-09
            ]
        },
        {
            "name" : "Bone",
            "rotation" : [
                -0.9824614524841309,
                -4.445549350862166e-08,
                -2.3423666561939172e-07,
                0.18646569550037384
            ],
            "scale" : [
                1,
                1.0000001192092896,
                0.9999990463256836
            ],
            "translation" : [
                1.299804921472969e-07,
                0.7494286298751831,
                -0.27258890867233276
            ]
        },
        {
            "name" : "Feet.L",
            "rotation" : [
                -0.8227812051773071,
                -0.008028180338442326,
                0.00624015973880887,
                0.5682673454284668
            ],
            "scale" : [
                1.0000001192092896,
                0.9999999403953552,
                0.9999998807907104
            ],
            "translation" : [
                -2.2873548388702147e-08,
                0.20843130350112915,
                8.955771235719112e-09
            ]
        },
        {
            "children" : [
                14
            ],
            "name" : "LowerLeg.L",
            "rotation" : [
                0.40009385347366333,
                -3.893806024279911e-06,
                -0.023174896836280823,
                0.916181206703186
            ],
            "scale" : [
                1.0000063180923462,
                1.00001060962677,
                1.0000073909759521
            ],
            "translation" : [
                8.398502870932134e-08,
                0.3694644570350647,
                -2.724360115280433e-08
            ]
        },
        {
            "children" : [
                15
            ],
            "name" : "UpperLeg.L",
            "rotation" : [
                0.0007536123739555478,
                -0.1492101401090622,
                -0.9887099266052246,
                0.013724863529205322
            ],
            "scale" : [
                1.0001583099365234,
                0.9999991059303284,
                1.0002366304397583
            ],
            "translation" : [
                -0.27790969610214233,
                0.02408147230744362,
                0.0224003829061985
            ]
        },
        {
            "name" : "Hand.L",
            "rotation" : [
                0.056473132222890854,
                0.059633783996105194,
                0.028185347095131874,
                0.996222972869873
            ],
            "translation" : [
                4.6749139670509976e-08,
                0.44969508051872253,
                -4.064133563019823e-08
            ]
        },
        {
            "children" : [
                17
            ],
            "name" : "LowerArm.L",
            "rotation" : [
                -0.3925623297691345,
                0.004528664983808994,
                -0.2087308168411255,
                0.8957153558731079
            ],
            "scale" : [
                1,
                0.9999998211860657,
                1
            ],
            "translation" : [
                -1.8565555137683987e-07,
                0.37265416979789734,
                -7.747418351300439e-08
            ]
        },
        {
            "children" : [
                18
            ],
            "name" : "UpperArm.L",
            "rotation" : [
                -0.38637325167655945,
                0.31070011854171753,
                0.6300638318061829,
                0.5976628065109253
            ],
            "scale" : [
                1,
                0.9999998807907104,
                1
            ],
            "translation" : [
                -5.0109015603538865e-08,
                0.19048960506916046,
                -6.569415678114865e-09
            ]
        },
        {
            "children" : [
                19
            ],
            "name" : "Shoulder.L",
            "rotation" : [
                -0.10497087985277176,
                0.047996241599321365,
                0.46100884675979614,
                0.879857063293457
            ],
            "scale" : [
                0.9999999403953552,
                1,
                1
            ],
            "translation" : [
                -0.2223277986049652,
                0.7385761141777039,
                0.0029415683820843697
            ]
        },
        {
            "name" : "Feet.R",
            "rotation" : [
                -0.8227817416191101,
                0.008028171956539154,
                -0.006240163464099169,
                0.5682666897773743
            ],
            "scale" : [
                0.9999999403953552,
                0.9999999403953552,
                0.9999998807907104
            ],
            "translation" : [
                -1.1859681237069708e-08,
                0.20843148231506348,
                9.775014575552632e-09
            ]
        },
        {
            "children" : [
                21
            ],
            "name" : "LowerLeg.R",
            "rotation" : [
                0.4000933766365051,
                3.960895355703542e-06,
                0.02317485399544239,
                0.9161813259124756
            ],
            "scale" : [
                1.0000061988830566,
                1.0000098943710327,
                1.0000067949295044
            ],
            "translation" : [
                -2.5853127638697515e-08,
                0.36946427822113037,
                -2.273857369061716e-08
            ]
        },
        {
            "children" : [
                22
            ],
            "name" : "UpperLeg.R",
            "rotation" : [
                0.0007664610748179257,
                0.14892108738422394,
                0.9887534976005554,
                0.013728718273341656
            ],
            "scale" : [
                1.0001544952392578,
                0.9999991059303284,
                1.0002304315567017
            ],
            "translation" : [
                0.27790969610214233,
                0.024081533774733543,
                0.02240067906677723
            ]
        },
        {
            "name" : "Hand.R",
            "rotation" : [
                0.05235905572772026,
                -0.07784152776002884,
                -0.010716604068875313,
                0.995532214641571
            ],
            "scale" : [
                0.9999998807907104,
                1,
                1.0000001192092896
            ],
            "translation" : [
                -5.333787811423463e-08,
                0.4496951401233673,
                -1.2998931708807504e-08
            ]
        },
        {
            "children" : [
                24
            ],
            "name" : "LowerArm.R",
            "rotation" : [
                -0.3656971752643585,
                -0.0046018208377063274,
                0.1944463700056076,
                0.9101840853691101
            ],
            "scale" : [
                0.9999997019767761,
                0.9999995827674866,
                0.9999997615814209
            ],
            "translation" : [
                8.09859557193704e-08,
                0.3726542890071869,
                -5.75702951977064e-09
            ]
        },
        {
            "children" : [
                25
            ],
            "name" : "UpperArm.R",
            "rotation" : [
                -0.40184876322746277,
                -0.28821784257888794,
                -0.6216152310371399,
                0.607488751411438
            ],
            "scale" : [
                1,
                0.9999998807907104,
                1.000000238418579
            ],
            "translation" : [
                2.3322010989090813e-08,
                0.19048947095870972,
                -2.5856721208583622e-08
            ]
        },
        {
            "children" : [
                26
            ],
            "name" : "Shoulder.R",
            "rotation" : [
                -0.10497064143419266,
                -0.04799666628241539,
                -0.4610089659690857,
                0.8798569440841675
            ],
            "scale" : [
                1,
                1.0000001192092896,
                1.000000238418579
            ],
            "translation" : [
                0.22232763469219208,
                0.7385759949684143,
                0.002941807033494115
            ]
        },
        {
            "children" : [
                12,
                13,
                16,
                20,
                23,
                27
            ],
            "name" : "Hip",
            "rotation" : [
                0.2532293200492859,
                2.3064762899593916e-07,
                6.037455335672348e-08,
                0.9674063920974731
            ],
            "scale" : [
                1,
                1.0000001192092896,
                1.0000001192092896
            ],
            "translation" : [
                -3.770939065105922e-17,
                0.6945272088050842,
                -1.4533917180870048e-08
            ]
        },
        {
            "name" : "HandPole.L",
            "rotation" : [
                0.45487162470817566,
                0.5413796305656433,
                0.5413796305656433,
                0.45487162470817566
            ],
            "translation" : [
                -0.7461817264556885,
                1.461124300956726,
                0.6017944812774658
            ]
        },
        {
            "name" : "LegPole.L",
            "rotation" : [
                0.007347043603658676,
                -0.7070686221122742,
                0.707068681716919,
                -0.007347043603658676
            ],
            "scale" : [
                0.9999999403953552,
                1,
                0.9999999403953552
            ],
            "translation" : [
                -0.26950380206108093,
                0.35068628191947937,
                -0.5919018983840942
            ]
        },
        {
            "name" : "HandControl.L",
            "rotation" : [
                0.485500693321228,
                0.5140905380249023,
                0.5140905380249023,
                0.485500693321228
            ],
            "translation" : [
                -0.5164268016815186,
                0.9304980635643005,
                -0.12041463702917099
            ]
        },
        {
            "name" : "LegControl.L",
            "rotation" : [
                0.004560763482004404,
                0.7070921063423157,
                0.7070920467376709,
                0.004560763482004404
            ],
            "translation" : [
                -0.2737925350666046,
                0.17198920249938965,
                0.060755327343940735
            ]
        },
        {
            "name" : "LegControl.R",
            "rotation" : [
                -0.004560763482004404,
                0.7070921063423157,
                0.7070920467376709,
                -0.004560763482004404
            ],
            "translation" : [
                0.2737925350666046,
                0.17198920249938965,
                0.060755327343940735
            ]
        },
        {
            "name" : "HandPole.R",
            "rotation" : [
                0.45487162470817566,
                -0.5413796305656433,
                -0.5413796305656433,
                0.45487162470817566
            ],
            "translation" : [
                0.7461817264556885,
                1.461124300956726,
                0.6017944812774658
            ]
        },
        {
            "name" : "LegPole.R",
            "rotation" : [
                -0.007347043603658676,
                -0.7070686221122742,
                0.707068681716919,
                0.007347043603658676
            ],
            "scale" : [
                0.9999999403953552,
                1,
                0.9999999403953552
            ],
            "translation" : [
                0.26950380206108093,
                0.35068628191947937,
                -0.5919018983840942
            ]
        },
        {
            "name" : "HandControl.R",
            "rotation" : [
                0.485500693321228,
                -0.5140905380249023,
                -0.5140905380249023,
                0.485500693321228
            ],
            "translation" : [
                0.5256688594818115,
                0.9397404193878174,
                -0.14352023601531982
            ]
        },
        {
            "children" : [
                28,
                29,
                30,
                31,
                32,
                33,
                34,
                35,
                36
            ],
            "name" : "Armature"
        }
    ],
    "meshes" : [
        {
            "name" : "Icosphere.003",
            "primitives" : [
                {
                    "attributes" : {
                        "POSITION" : 0,
                        "NORMAL" : 1,
                        "TEXCOORD_0" : 2
                    },
                    "indices" : 3
                }
            ]
        }
    ],
    "accessors" : [
        {
            "bufferView" : 0,
            "componentType" : 5126,
            "count" : 5263,
            "max" : [
                2.3011434078216553,
                0.9261805415153503,
                2.0316877365112305
            ],
            "min" : [
                -2.3011434078216553,
                -2.663483142852783,
                -0.9289695024490356
            ],
            "type" : "VEC3"
        },
        {
            "bufferView" : 1,
            "componentType" : 5126,
            "count" : 5263,
            "type" : "VEC3"
        },
        {
            "bufferView" : 2,
            "componentType" : 5126,
            "count" : 5263,
            "type" : "VEC2"
        },
        {
            "bufferView" : 3,
            "componentType" : 5123,
            "count" : 28212,
            "type" : "SCALAR"
        }
    ],
    "bufferViews" : [
        {
            "buffer" : 0,
            "byteLength" : 63156,
            "byteOffset" : 0
        },
        {
            "buffer" : 0,
            "byteLength" : 63156,
            "byteOffset" : 63156
        },
        {
            "buffer" : 0,
            "byteLength" : 42104,
            "byteOffset" : 126312
        },
        {
            "buffer" : 0,
            "byteLength" : 56424,
            "byteOffset" : 168416
        }
    ],
    "buffers" : [
        {
            "byteLength" : 224840,
            "uri" : "data:application/octet-stream;base64,"
        }
    ]
}
