{
    "asset" : {
        "generator" : "Khronos glTF Blender I/O v1.4.40",
        "version" : "2.0"
    },
    "scene" : 0,
    "scenes" : [
        {
            "name" : "Scene",
            "nodes" : [
                0
            ]
        }
    ],
    "nodes" : [
        {
            "mesh" : 0,
            "name" : "Leech"
        }
    ],
    "meshes" : [
        {
            "name" : "Cube",
            "primitives" : [
                {
                    "attributes" : {
                        "POSITION" : 0,
                        "NORMAL" : 1,
                        "TEXCOORD_0" : 2
                    },
                    "indices" : 3
                }
            ]
        }
    ],
    "accessors" : [
        {
            "bufferView" : 0,
            "componentType" : 5126,
            "count" : 1990,
            "max" : [
                0.2500670254230499,
                0.40300124883651733,
                1.0040227174758911
            ],
            "min" : [
                -0.2500670850276947,
                -0.01750701665878296,
                -0.946253776550293
            ],
            "type" : "VEC3"
        },
        {
            "bufferView" : 1,
            "componentType" : 5126,
            "count" : 1990,
            "type" : "VEC3"
        },
        {
            "bufferView" : 2,
            "componentType" : 5126,
            "count" : 1990,
            "type" : "VEC2"
        },
        {
            "bufferView" : 3,
            "componentType" : 5123,
            "count" : 10752,
            "type" : "SCALAR"
        }
    ],
    "bufferViews" : [
        {
            "buffer" : 0,
            "byteLength" : 23880,
            "byteOffset" : 0
        },
        {
            "buffer" : 0,
            "byteLength" : 23880,
            "byteOffset" : 23880
        },
        {
            "buffer" : 0,
            "byteLength" : 15920,
            "byteOffset" : 47760
        },
        {
            "buffer" : 0,
            "byteLength" : 21504,
            "byteOffset" : 63680
        }
    ],
    "buffers" : [
        {
            "byteLength" : 85184,
            "uri" : "data:application/octet-stream;base64,"
        }
    ]
}
