{
    "asset" : {
        "generator" : "Khronos glTF Blender I/O v1.4.40",
        "version" : "2.0"
    },
    "scene" : 0,
    "scenes" : [
        {
            "name" : "Scene",
            "nodes" : [
                5
            ]
        }
    ],
    "nodes" : [
        {
            "name" : "Bone",
            "rotation" : [
                -3.789055735836655e-09,
                6.02104677227544e-08,
                -0.18268705904483795,
                0.9831711053848267
            ],
            "scale" : [
                1,
                0.9999999403953552,
                1
            ],
            "translation" : [
                -4.274613380432129,
                -3.080885171890259,
                -3.065614938735962
            ]
        },
        {
            "name" : "Bone.002",
            "rotation" : [
                0.21836614608764648,
                0.00026333690038882196,
                -0.16436484456062317,
                0.9619253277778625
            ],
            "scale" : [
                0.9999998807907104,
                0.9999998807907104,
                0.9999998807907104
            ],
            "translation" : [
                1.62373948097229,
                1.4176602363586426,
                -4.181291580200195
            ]
        },
        {
            "name" : "Bone.003",
            "rotation" : [
                0.2183661311864853,
                0.0002633659169077873,
                -0.16436487436294556,
                0.9619253873825073
            ],
            "scale" : [
                0.9999998807907104,
                1.0000001192092896,
                1.0000001192092896
            ],
            "translation" : [
                -2.507796049118042,
                2.262061834335327,
                -1.9195020198822021
            ]
        },
        {
            "name" : "Bone.001",
            "rotation" : [
                -0.1375141739845276,
                -0.0009904918260872364,
                -0.11081180721521378,
                0.9842813611030579
            ],
            "scale" : [
                1,
                0.9999999403953552,
                1
            ],
            "translation" : [
                0.7075241804122925,
                -2.7796452045440674,
                -3.5319721698760986
            ]
        },
        {
            "mesh" : 0,
            "name" : "Heart",
            "skin" : 0
        },
        {
            "children" : [
                4,
                0,
                1,
                2,
                3
            ],
            "name" : "Armature"
        }
    ],
    "animations" : [
        {
            "channels" : [
                {
                    "sampler" : 0,
                    "target" : {
                        "node" : 0,
                        "path" : "translation"
                    }
                },
                {
                    "sampler" : 1,
                    "target" : {
                        "node" : 0,
                        "path" : "rotation"
                    }
                },
                {
                    "sampler" : 2,
                    "target" : {
                        "node" : 0,
                        "path" : "scale"
                    }
                },
                {
                    "sampler" : 3,
                    "target" : {
                        "node" : 3,
                        "path" : "translation"
                    }
                },
                {
                    "sampler" : 4,
                    "target" : {
                        "node" : 3,
                        "path" : "rotation"
                    }
                },
                {
                    "sampler" : 5,
                    "target" : {
                        "node" : 3,
                        "path" : "scale"
                    }
                },
                {
                    "sampler" : 6,
                    "target" : {
                        "node" : 1,
                        "path" : "translation"
                    }
                },
                {
                    "sampler" : 7,
                    "target" : {
                        "node" : 1,
                        "path" : "rotation"
                    }
                },
                {
                    "sampler" : 8,
                    "target" : {
                        "node" : 1,
                        "path" : "scale"
                    }
                },
                {
                    "sampler" : 9,
                    "target" : {
                        "node" : 2,
                        "path" : "translation"
                    }
                },
                {
                    "sampler" : 10,
                    "target" : {
                        "node" : 2,
                        "path" : "rotation"
                    }
                },
                {
                    "sampler" : 11,
                    "target" : {
                        "node" : 2,
                        "path" : "scale"
                    }
                }
            ],
            "name" : "Heartbeat",
            "samplers" : [
                {
                    "input" : 7,
                    "interpolation" : "LINEAR",
                    "output" : 8
                },
                {
                    "input" : 7,
                    "interpolation" : "LINEAR",
                    "output" : 9
                },
                {
                    "input" : 7,
                    "interpolation" : "LINEAR",
                    "output" : 10
                },
                {
                    "input" : 7,
                    "interpolation" : "LINEAR",
                    "output" : 11
                },
                {
                    "input" : 7,
                    "interpolation" : "LINEAR",
                    "output" : 12
                },
                {
                    "input" : 7,
                    "interpolation" : "LINEAR",
                    "output" : 13
                },
                {
                    "input" : 7,
                    "interpolation" : "LINEAR",
                    "output" : 14
                },
                {
                    "input" : 7,
                    "interpolation" : "LINEAR",
                    "output" : 15
                },
                {
                    "input" : 7,
                    "interpolation" : "LINEAR",
                    "output" : 16
                },
                {
                    "input" : 7,
                    "interpolation" : "LINEAR",
                    "output" : 17
                },
                {
                    "input" : 7,
                    "interpolation" : "LINEAR",
                    "output" : 18
                },
                {
                    "input" : 7,
                    "interpolation" : "LINEAR",
                    "output" : 19
                }
            ]
        }
    ],
    "materials" : [
        {
            "doubleSided" : true,
            "name" : "HeartMaterial",
            "normalTexture" : {
                "index" : 0,
                "texCoord" : 0
            },
            "pbrMetallicRoughness" : {
                "baseColorTexture" : {
                    "index" : 1,
                    "texCoord" : 0
                },
                "metallicFactor" : 0,
                "metallicRoughnessTexture" : {
                    "index" : 2,
                    "texCoord" : 0
                }
            }
        }
    ],
    "meshes" : [
        {
            "name" : "Icosphere",
            "primitives" : [
                {
                    "attributes" : {
                        "POSITION" : 0,
                        "NORMAL" : 1,
                        "TEXCOORD_0" : 2,
                        "JOINTS_0" : 3,
                        "WEIGHTS_0" : 4
                    },
                    "indices" : 5,
                    "material" : 0
                }
            ]
        }
    ],
    "textures" : [
        {
            "sampler" : 0,
            "source" : 0
        },
        {
            "sampler" : 0,
            "source" : 1
        },
        {
            "sampler" : 0,
            "source" : 2
        }
    ],
    "images" : [
        {
            "bufferView" : 6,
            "mimeType" : "image/jpeg",
            "name" : "Heart_Texture"
        },
        {
            "bufferView" : 7,
            "mimeType" : "image/jpeg",
            "name" : "Heart_Albedo"
        },
        {
            "bufferView" : 8,
            "mimeType" : "image/png",
            "name" : "Heart_Roughness"
        }
    ],
    "skins" : [
        {
            "inverseBindMatrices" : 6,
            "joints" : [
                0,
                1,
                2,
                3
            ],
            "name" : "Armature"
        }
    ],
    "accessors" : [
        {
            "bufferView" : 0,
            "componentType" : 5126,
            "count" : 4299,
            "max" : [
                13.038987159729004,
                11.506742477416992,
                10.2974853515625
            ],
            "min" : [
                -9.253081321716309,
                -11.988166809082031,
                -5.280730247497559
            ],
            "type" : "VEC3"
        },
        {
            "bufferView" : 1,
            "componentType" : 5126,
            "count" : 4299,
            "type" : "VEC3"
        },
        {
            "bufferView" : 2,
            "componentType" : 5126,
            "count" : 4299,
            "type" : "VEC2"
        },
        {
            "bufferView" : 3,
            "componentType" : 5121,
            "count" : 4299,
            "type" : "VEC4"
        },
        {
            "bufferView" : 4,
            "componentType" : 5126,
            "count" : 4299,
            "type" : "VEC4"
        },
        {
            "bufferView" : 5,
            "componentType" : 5123,
            "count" : 23058,
            "type" : "SCALAR"
        },
        {
            "bufferView" : 9,
            "componentType" : 5126,
            "count" : 4,
            "type" : "MAT4"
        },
        {
            "bufferView" : 10,
            "componentType" : 5126,
            "count" : 30,
            "max" : [
                1
            ],
            "min" : [
                0.03333333333333333
            ],
            "type" : "SCALAR"
        },
        {
            "bufferView" : 11,
            "componentType" : 5126,
            "count" : 30,
            "type" : "VEC3"
        },
        {
            "bufferView" : 12,
            "componentType" : 5126,
            "count" : 30,
            "type" : "VEC4"
        },
        {
            "bufferView" : 13,
            "componentType" : 5126,
            "count" : 30,
            "type" : "VEC3"
        },
        {
            "bufferView" : 14,
            "componentType" : 5126,
            "count" : 30,
            "type" : "VEC3"
        },
        {
            "bufferView" : 15,
            "componentType" : 5126,
            "count" : 30,
            "type" : "VEC4"
        },
        {
            "bufferView" : 16,
            "componentType" : 5126,
            "count" : 30,
            "type" : "VEC3"
        },
        {
            "bufferView" : 17,
            "componentType" : 5126,
            "count" : 30,
            "type" : "VEC3"
        },
        {
            "bufferView" : 18,
            "componentType" : 5126,
            "count" : 30,
            "type" : "VEC4"
        },
        {
            "bufferView" : 19,
            "componentType" : 5126,
            "count" : 30,
            "type" : "VEC3"
        },
        {
            "bufferView" : 20,
            "componentType" : 5126,
            "count" : 30,
            "type" : "VEC3"
        },
        {
            "bufferView" : 21,
            "componentType" : 5126,
            "count" : 30,
            "type" : "VEC4"
        },
        {
            "bufferView" : 22,
            "componentType" : 5126,
            "count" : 30,
            "type" : "VEC3"
        }
    ],
    "bufferViews" : [
        {
            "buffer" : 0,
            "byteLength" : 51588,
            "byteOffset" : 0
        },
        {
            "buffer" : 0,
            "byteLength" : 51588,
            "byteOffset" : 51588
        },
        {
            "buffer" : 0,
            "byteLength" : 34392,
            "byteOffset" : 103176
        },
        {
            "buffer" : 0,
            "byteLength" : 17196,
            "byteOffset" : 137568
        },
        {
            "buffer" : 0,
            "byteLength" : 68784,
            "byteOffset" : 154764
        },
        {
            "buffer" : 0,
            "byteLength" : 46116,
            "byteOffset" : 223548
        },
        {
            "buffer" : 0,
            "byteLength" : 163492,
            "byteOffset" : 269664
        },
        {
            "buffer" : 0,
            "byteLength" : 182831,
            "byteOffset" : 433156
        },
        {
            "buffer" : 0,
            "byteLength" : 431781,
            "byteOffset" : 615988
        },
        {
            "buffer" : 0,
            "byteLength" : 256,
            "byteOffset" : 1047772
        },
        {
            "buffer" : 0,
            "byteLength" : 120,
            "byteOffset" : 1048028
        },
        {
            "buffer" : 0,
            "byteLength" : 360,
            "byteOffset" : 1048148
        },
        {
            "buffer" : 0,
            "byteLength" : 480,
            "byteOffset" : 1048508
        },
        {
            "buffer" : 0,
            "byteLength" : 360,
            "byteOffset" : 1048988
        },
        {
            "buffer" : 0,
            "byteLength" : 360,
            "byteOffset" : 1049348
        },
        {
            "buffer" : 0,
            "byteLength" : 480,
            "byteOffset" : 1049708
        },
        {
            "buffer" : 0,
            "byteLength" : 360,
            "byteOffset" : 1050188
        },
        {
            "buffer" : 0,
            "byteLength" : 360,
            "byteOffset" : 1050548
        },
        {
            "buffer" : 0,
            "byteLength" : 480,
            "byteOffset" : 1050908
        },
        {
            "buffer" : 0,
            "byteLength" : 360,
            "byteOffset" : 1051388
        },
        {
            "buffer" : 0,
            "byteLength" : 360,
            "byteOffset" : 1051748
        },
        {
            "buffer" : 0,
            "byteLength" : 480,
            "byteOffset" : 1052108
        },
        {
            "buffer" : 0,
            "byteLength" : 360,
            "byteOffset" : 1052588
        }
    ],
    "samplers" : [
        {
            "magFilter" : 9729,
            "minFilter" : 9986
        }
    ],
    "buffers" : [
        {
            "byteLength" : 1052948,
            "uri" : "data:application/octet-stream;base64,"
        }
    ]
}
